<svg width="31" height="27" viewBox="0 0 31 27" fill="none" xmlns="http://www.w3.org/2000/svg">
<path d="M30.0837 0H0.916256C-0.305419 0 -0.305419 1.92596 0.916256 1.92596H5.95567V26.039C5.95567 26.8094 7.02463 27.3486 7.55911 26.7323C10.2315 23.8819 12.8276 21.0315 15.5 18.1811C18.0961 20.9545 20.7685 23.8049 23.3645 26.5783C23.3645 26.6553 23.4409 26.6553 23.4409 26.6553C23.7463 26.9635 24.1281 26.9635 24.4335 26.8094C24.7389 26.7323 25.0443 26.4242 25.0443 25.962V1.92596H30.0837C31.3054 1.92596 31.3054 0 30.0837 0ZM23.1355 23.5738L16.1108 16.024C15.7291 15.6388 15.1182 15.6388 14.7365 16.024C12.4458 18.4892 10.0788 21.0315 7.78818 23.4967V1.92596H23.1355V23.5738Z" fill="#FFA54A"/>
<path d="M16.798 0H0V23.1115L8.61438 14.1237L16.798 23.1115V0Z" transform="translate(6.87192 1.54053)" fill="#FFA54A"/>
</svg>
