<?xml version="1.0" encoding="UTF-8"?>
<svg width="26px" height="23px" viewBox="0 0 26 23" version="1.1" xmlns="http://www.w3.org/2000/svg" xmlns:xlink="http://www.w3.org/1999/xlink">
    <!-- Generator: Sketch 51.2 (57519) - http://www.bohemiancoding.com/sketch -->
    <title>Shape</title>
    <desc>Created with Sketch.</desc>
    <defs></defs>
    <g id="Outline" stroke="none" stroke-width="1" fill="none" fill-rule="evenodd">
        <g id="budicon-2.0-outline" transform="translate(-825.000000, -1560.000000)" fill="#353638" fill-rule="nonzero">
            <g id="Icons" transform="translate(465.000000, 178.000000)">
                <g id="Furniture" transform="translate(1.000000, 1021.000000)">
                    <g id="budicon-home-safe" transform="translate(359.000000, 361.000000)">
                        <path d="M25.6,11.6 L13.6,0.6 C13.4,0.4 13.1,0.4 12.9,0.6 L0.9,11.6 C0.7,11.8 0.7,12.1 0.9,12.3 C1.1,12.5 1.4,12.5 1.6,12.3 L3.8,10.3 L3.8,20.9 C3.8,21.7 4.5,22.4 5.3,22.4 L21.3,22.4 C22.1,22.4 22.8,21.7 22.8,20.9 L22.8,10.3 L25,12.3 C25.1,12.4 25.2,12.4 25.3,12.4 C25.4,12.4 25.6,12.3 25.7,12.2 C25.8,12.1 25.8,11.8 25.6,11.6 Z M21.8,9.5 L21.8,21 C21.8,21.3 21.6,21.5 21.3,21.5 L5.3,21.5 C5,21.5 4.8,21.3 4.8,21 L4.8,9.5 L4.8,9.5 L13.3,1.7 L21.8,9.5 L21.8,9.5 Z M12.2,15.3 L16.9,10.6 C17.1,10.4 17.4,10.4 17.6,10.6 C17.8,10.8 17.8,11.1 17.6,11.3 L12.6,16.3 C12.5,16.4 12.4,16.4 12.2,16.4 C12.1,16.4 12,16.4 11.9,16.3 L8.9,14.3 C8.7,14.1 8.7,13.8 8.8,13.6 C9,13.4 9.3,13.4 9.5,13.5 L12.2,15.3 Z" id="Shape"></path>
                    </g>
                </g>
            </g>
        </g>
    </g>
</svg>