<?xml version="1.0" encoding="UTF-8"?>
<svg width="18px" height="26px" viewBox="0 0 18 26" version="1.1" xmlns="http://www.w3.org/2000/svg" xmlns:xlink="http://www.w3.org/1999/xlink">
    <!-- Generator: Sketch 51.2 (57519) - http://www.bohemiancoding.com/sketch -->
    <title>Shape</title>
    <desc>Created with Sketch.</desc>
    <defs></defs>
    <g id="Outline" stroke="none" stroke-width="1" fill="none" fill-rule="evenodd">
        <g id="budicon-2.0-outline" transform="translate(-1888.000000, -5034.000000)" fill="#353638" fill-rule="nonzero">
            <g id="Icons" transform="translate(465.000000, 178.000000)">
                <g id="Interface" transform="translate(770.000000, 4280.000000)">
                    <g id="budicon-lock" transform="translate(653.000000, 576.000000)">
                        <path d="M9.3,14.5 C9.1,14.5 8.8,14.5 8.6,14.6 C7.8,14.8 7.1,15.5 6.9,16.3 C6.6,17.4 7,18.3 7.7,18.9 L6.9,20.9 C6.8,21.2 7,21.6 7.4,21.6 L11.4,21.6 C11.7,21.6 12,21.3 11.9,20.9 L11.1,18.9 C11.6,18.4 12,17.8 12,17 C11.8,15.6 10.6,14.5 9.3,14.5 Z M10.6,20.5 L8,20.5 L8.8,18.6 L8.3,18.2 C7.8,17.8 7.7,17.2 7.8,16.6 C7.9,16.1 8.3,15.8 8.8,15.6 C8.9,15.6 9.1,15.5 9.2,15.5 C10,15.5 10.7,16.2 10.7,17 C10.7,17.4 10.5,17.8 10.2,18.1 L9.7,18.5 L10.6,20.5 Z M16.3,10.5 L14.8,10.5 L14.8,6 C14.8,3 12.3,0.5 9.3,0.5 C6.3,0.5 3.8,3 3.8,6 L3.8,10.5 L2.3,10.5 C1.5,10.5 0.8,11.2 0.8,12 L0.8,24 C0.8,24.8 1.5,25.5 2.3,25.5 L16.3,25.5 C17.1,25.5 17.8,24.8 17.8,24 L17.8,12 C17.8,11.2 17.1,10.5 16.3,10.5 Z M4.8,6 C4.8,3.5 6.8,1.5 9.3,1.5 C11.8,1.5 13.8,3.5 13.8,6 L13.8,10.5 L4.8,10.5 L4.8,6 Z M16.8,24 C16.8,24.3 16.6,24.5 16.3,24.5 L2.3,24.5 C2,24.5 1.8,24.3 1.8,24 L1.8,12 C1.8,11.7 2,11.5 2.3,11.5 L16.3,11.5 C16.6,11.5 16.8,11.7 16.8,12 L16.8,24 Z" id="Shape"></path>
                    </g>
                </g>
            </g>
        </g>
    </g>
</svg>